<svg xmlns="http://www.w3.org/2000/svg" width="41" height="32"><path d="M2.05 31.73H34.8c1.13 0 2.04-.91 2.04-2.05v-2.72c0-1.13-.91-2.05-2.04-2.05h-.68V7.89l3.87-3.67a2.06 2.06 0 1 0-.95-.97L34.12 6V4.44c0-1.13-.92-2.05-2.05-2.05H4.77c-1.12 0-2.04.92-2.04 2.05v20.47h-.68c-1.13 0-2.05.92-2.05 2.05v2.73c0 1.13.92 2.04 2.05 2.04zM38.89 1.71a.68.68 0 1 1 0 1.36.68.68 0 0 1 0-1.36zM4.1 4.44c0-.38.31-.68.69-.68h27.29c.38 0 .68.3.68.68v2.87l-1.36 1.3V5.8c0-.38-.31-.69-.69-.69H6.14c-.38 0-.68.3-.68.68v17.06c0 .38.3.68.68.68H30.7c.38 0 .69-.3.69-.68V10.48l1.36-1.3v15.73H4.09V4.44zm6.14 8.87a2.05 2.05 0 1 0 1.42 3.52l2.37 1.19c.28.14.61.07.82-.16l5.04-5.67 4.96 3.71c.26.2.63.18.87-.05l4.31-4.08v10.41H6.82V6.48h23.2V9.9l-4.83 4.58-5-3.75a.68.68 0 0 0-.91.09l-5.11 5.75-1.92-.95.03-.25c0-1.13-.92-2.05-2.05-2.05zm.69 2.05a.68.68 0 1 1-1.37 0 .68.68 0 0 1 1.37 0zm4.1 10.91h6.81v.69c0 .37-.3.68-.68.68H15.7a.68.68 0 0 1-.68-.68v-.69zm-13.65.69c0-.38.3-.69.68-.69h11.6v.69c0 1.13.91 2.04 2.04 2.04h5.46c1.13 0 2.05-.91 2.05-2.04v-.69h11.6c.38 0 .68.3.68.69v2.72c0 .38-.3.69-.68.69H2.05a.68.68 0 0 1-.68-.69v-2.72z"/></svg>