<svg xmlns="http://www.w3.org/2000/svg" width="30" height="32"><path d="m29.77 22.1-8.44-8.5.94-4.62c.24.1.5.14.75.14h.01a2.16 2.16 0 1 0-2-1.43l-4.97.6L7.97.16A.53.53 0 0 0 7.6 0a.53.53 0 0 0-.37.16l-1.51 1.5c-.2.2-.2.55 0 .75l.81.83A14.94 14.94 0 0 0 9.04 20.9c.05.04.1.08.15.1-.04.18-.05.36-.05.55v6.18h-6.4A2.67 2.67 0 0 0 .07 30.4v1.07c0 .3.24.53.53.53h24.54c.29 0 .53-.24.53-.53V30.4c0-1.47-1.2-2.66-2.67-2.66h-6.4v-2.75a14.85 14.85 0 0 0 10.09-1.46l.82.82a.53.53 0 0 0 .75 0l1.51-1.5c.2-.2.2-.54 0-.75zM22.28 6.23a1.07 1.07 0 1 1 .75 1.82 1.07 1.07 0 0 1-.75-1.82zm-1.26 3.5-.6 2.95-1.17-1.18 1.78-1.76zm-.6-.9-1.92 1.92L17 9.25l3.4-.41zM23 28.8c.89 0 1.6.72 1.6 1.6v.53H1.14v-.53c0-.88.71-1.6 1.6-1.6H23zm-7.46-2.13v1.06H10.2v-1.06h5.34zM10.2 25.6v-4.05c0-1.3 1.2-2.35 2.67-2.35s2.67 1.05 2.67 2.35v4.05H10.2zm6.4-1.7v-2.35c0-1.89-1.67-3.42-3.73-3.42a3.8 3.8 0 0 0-3.28 1.79A13.87 13.87 0 0 1 7.31 4.03l18.6 18.71a13.82 13.82 0 0 1-9.3 1.16zm11.3-.68L6.83 2.04l.75-.75 7.94 7.98 13.12 13.2-.76.75z"/></svg>