<svg xmlns="http://www.w3.org/2000/svg" width="29" height="32"><path d="M27.75 13.65a2 2 0 0 0-1.33-.79 2 2 0 0 0-1.5.4l-1.41 1.07-2.14 1.6-1.52-.61a7.79 7.79 0 0 0 4.62-7.1 7.8 7.8 0 1 0-14.37 4.22L7 12.42h-.04a.56.56 0 0 0-.17.04l-.05.01h-.02l-3.63 1.8L.97 15.3a2 2 0 0 0 2 3.47l1.54-.83 2.55-1.3 1.52-.02-6.11 6.08-1.5 1.5a1.85 1.85 0 0 0 0 2.65 1.87 1.87 0 0 0 2.64 0l1.48-1.47 1.95-1.46 1.02 1-1.98 1.98-1.5 1.5a1.85 1.85 0 0 0 0 2.64 1.87 1.87 0 0 0 2.64 0l3.91-3.9 1.14-1.12.02-.02 5.8-6.35 3.9.55a.58.58 0 0 0 .3-.04l.04-.02.07-.03 3.6-2.4c.02 0 .03-.02.04-.03l.05-.03 1.42-1.34a2 2 0 0 0 .24-2.65zM2.39 17.71a.8.8 0 0 1-.63.05.8.8 0 0 1-.24-1.41L3 15.64l.5 1.47-1.1.6zm3.93-2.06-1.74.9-.5-1.44L6.37 14l-.04 1.67zm16.95-7.43c0 1.03-.24 2-.67 2.87l-4.7-2.13a2.09 2.09 0 0 0-.88-1.55l1.64-5.46a6.6 6.6 0 0 1 4.61 6.27zm-13.23 0a6.61 6.61 0 0 1 7.45-6.53l-1.6 5.34h-.07a2.1 2.1 0 1 0 0 4.19 2.1 2.1 0 0 0 1.82-1.06l4.33 1.97a6.62 6.62 0 0 1-11.93-3.9zm6.68.9a.9.9 0 0 1-1.81 0 .9.9 0 0 1 1.81 0zM2.77 25.99a.68.68 0 0 1-.96 0 .67.67 0 0 1 0-.95l1.08-1.07.96.95-1.08 1.07zm3.6 4.2a.68.68 0 0 1-.95 0 .67.67 0 0 1 0-.96l1.08-1.07.95.95-1.07 1.07zm3.92-3.9L8.3 28.26l-.96-.95 1.99-1.97.1-.15c0-.02.02-.03.03-.05l.03-.14.01-.08-.02-.12c0-.04 0-.08-.02-.11a.64.64 0 0 0-.1-.16l-.03-.04-1.8-1.8-.07-.04a.57.57 0 0 0-.1-.06.57.57 0 0 0-.1-.04.55.55 0 0 0-.12-.02h-.1a.6.6 0 0 0-.13.02l-.1.05-.07.04-2 1.48-1-1 2.7-2.68 4.89 4.81-1.04 1.03zm7.65-7.88h-.05a.62.62 0 0 0-.34.09.52.52 0 0 0-.09.06l-.04.04-5.28 5.77-4.86-4.77 3.18-3.17a.6.6 0 0 0-.42-1.02l-2.5.01.04-1.8 3.48.03a7.8 7.8 0 0 0 7.03 2.22l.15.1 2.7 1.07.17.86.2.99-3.37-.48zm4.54.2-.35-1.75 1.62-1.21 1.06 1.4-2.33 1.56zm4.21-3.18-.94.88-1.04-1.39.93-.71c.18-.14.4-.2.61-.16a.8.8 0 0 1 .44 1.38z"/></svg>